<svg xmlns="http://www.w3.org/2000/svg" xmlns:xlink="http://www.w3.org/1999/xlink" width="500" zoomAndPan="magnify" viewBox="0 0 375 374.999991" height="500" preserveAspectRatio="xMidYMid meet" version="1.0"><defs><clipPath id="id1"><path d="M 2.113281 11 L 77 11 L 77 86 L 2.113281 86 Z M 2.113281 11 " clip-rule="nonzero"/></clipPath><clipPath id="id2"><path d="M 2.113281 290 L 77 290 L 77 364.976562 L 2.113281 364.976562 Z M 2.113281 290 " clip-rule="nonzero"/></clipPath><clipPath id="id3"><path d="M 298 290 L 372 290 L 372 364.976562 L 298 364.976562 Z M 298 290 " clip-rule="nonzero"/></clipPath><clipPath id="id4"><path d="M 2.113281 11 L 77 11 L 77 86 L 2.113281 86 Z M 2.113281 11 " clip-rule="nonzero"/></clipPath><clipPath id="id5"><path d="M 2.113281 290 L 77 290 L 77 364.976562 L 2.113281 364.976562 Z M 2.113281 290 " clip-rule="nonzero"/></clipPath><clipPath id="id6"><path d="M 298 290 L 372 290 L 372 364.976562 L 298 364.976562 Z M 298 290 " clip-rule="nonzero"/></clipPath><clipPath id="id7"><path d="M 150 290 L 225 290 L 225 364.976562 L 150 364.976562 Z M 150 290 " clip-rule="nonzero"/></clipPath><clipPath id="id8"><path d="M 150 290 L 188 290 L 188 364.976562 L 150 364.976562 Z M 150 290 " clip-rule="nonzero"/></clipPath><clipPath id="id9"><path d="M 101 11 L 126 11 L 126 364.976562 L 101 364.976562 Z M 101 11 " clip-rule="nonzero"/></clipPath><clipPath id="id10"><path d="M 248 11 L 274 11 L 274 364.976562 L 248 364.976562 Z M 248 11 " clip-rule="nonzero"/></clipPath></defs><g clip-path="url(#id1)"><path fill="#d64545" d="M 6.535156 14.738281 C 11.335938 9.933594 19.121094 9.933594 23.921875 14.738281 L 73.105469 63.984375 C 77.90625 68.792969 77.90625 76.589844 73.105469 81.398438 C 68.304688 86.207031 60.519531 86.207031 55.71875 81.398438 L 6.535156 32.152344 C 1.734375 27.34375 1.734375 19.546875 6.535156 14.738281 Z M 6.535156 14.738281 " fill-opacity="1" fill-rule="evenodd"/></g><g clip-path="url(#id2)"><path fill="#d64545" d="M 6.535156 293.804688 C 11.335938 288.996094 19.121094 288.996094 23.921875 293.804688 L 73.105469 343.050781 C 77.90625 347.859375 77.90625 355.652344 73.105469 360.460938 C 68.304688 365.269531 60.519531 365.269531 55.71875 360.460938 L 6.535156 311.214844 C 1.734375 306.40625 1.734375 298.613281 6.535156 293.804688 Z M 6.535156 293.804688 " fill-opacity="1" fill-rule="evenodd"/></g><path fill="#ee4d4d" d="M 301.625 14.738281 C 306.425781 9.933594 314.210938 9.933594 319.011719 14.738281 L 368.191406 63.984375 C 372.996094 68.792969 372.996094 76.589844 368.191406 81.398438 C 363.390625 86.207031 355.609375 86.207031 350.804688 81.398438 L 301.625 32.152344 C 296.824219 27.34375 296.824219 19.546875 301.625 14.738281 Z M 301.625 14.738281 " fill-opacity="1" fill-rule="evenodd"/><g clip-path="url(#id3)"><path fill="#ee4d4d" d="M 301.625 293.804688 C 306.425781 288.996094 314.210938 288.996094 319.011719 293.804688 L 368.191406 343.050781 C 372.996094 347.859375 372.996094 355.652344 368.191406 360.460938 C 363.390625 365.269531 355.609375 365.269531 350.804688 360.460938 L 301.625 311.214844 C 296.824219 306.40625 296.824219 298.613281 301.625 293.804688 Z M 301.625 293.804688 " fill-opacity="1" fill-rule="evenodd"/></g><path fill="#ee4d4d" d="M 154.078125 154.269531 C 158.882812 149.464844 166.664062 149.464844 171.46875 154.269531 L 220.648438 203.519531 C 225.449219 208.328125 225.449219 216.121094 220.648438 220.929688 C 215.847656 225.738281 208.0625 225.738281 203.261719 220.929688 L 154.078125 171.683594 C 149.277344 166.875 149.277344 159.078125 154.078125 154.269531 Z M 154.078125 154.269531 " fill-opacity="1" fill-rule="evenodd"/><g clip-path="url(#id4)"><path fill="#d64545" d="M 73.105469 14.738281 C 68.304688 9.933594 60.519531 9.933594 55.71875 14.738281 L 6.535156 63.984375 C 1.734375 68.792969 1.734375 76.589844 6.535156 81.398438 C 11.335938 86.207031 19.121094 86.207031 23.921875 81.398438 L 73.105469 32.152344 C 77.90625 27.34375 77.90625 19.546875 73.105469 14.738281 Z M 73.105469 14.738281 " fill-opacity="1" fill-rule="evenodd"/></g><g clip-path="url(#id5)"><path fill="#d64545" d="M 73.105469 293.804688 C 68.304688 288.996094 60.519531 288.996094 55.71875 293.804688 L 6.535156 343.050781 C 1.734375 347.859375 1.734375 355.652344 6.535156 360.460938 C 11.335938 365.269531 19.121094 365.269531 23.921875 360.460938 L 73.105469 311.214844 C 77.90625 306.40625 77.90625 298.613281 73.105469 293.804688 Z M 73.105469 293.804688 " fill-opacity="1" fill-rule="evenodd"/></g><path fill="#ee4d4d" d="M 368.191406 14.738281 C 363.390625 9.933594 355.609375 9.933594 350.804688 14.738281 L 301.625 63.984375 C 296.824219 68.792969 296.824219 76.589844 301.625 81.398438 C 306.425781 86.207031 314.210938 86.207031 319.011719 81.398438 L 368.191406 32.152344 C 372.996094 27.34375 372.996094 19.546875 368.191406 14.738281 Z M 368.191406 14.738281 " fill-opacity="1" fill-rule="evenodd"/><g clip-path="url(#id6)"><path fill="#ee4d4d" d="M 368.191406 293.804688 C 363.390625 288.996094 355.609375 288.996094 350.804688 293.804688 L 301.625 343.050781 C 296.824219 347.859375 296.824219 355.652344 301.625 360.460938 C 306.425781 365.269531 314.210938 365.269531 319.011719 360.460938 L 368.191406 311.214844 C 372.996094 306.40625 372.996094 298.613281 368.191406 293.804688 Z M 368.191406 293.804688 " fill-opacity="1" fill-rule="evenodd"/></g><path fill="#ee4d4d" d="M 220.648438 154.269531 C 215.847656 149.464844 208.0625 149.464844 203.261719 154.269531 L 154.078125 203.519531 C 149.277344 208.328125 149.277344 216.121094 154.078125 220.929688 C 158.882812 225.738281 166.664062 225.738281 171.46875 220.929688 L 220.648438 171.683594 C 225.449219 166.875 225.449219 159.078125 220.648438 154.269531 Z M 220.648438 154.269531 " fill-opacity="1" fill-rule="evenodd"/><path fill="#d64545" d="M 187.363281 170.1875 L 187.363281 205.011719 L 171.46875 220.929688 C 166.664062 225.738281 158.882812 225.738281 154.078125 220.929688 C 149.277344 216.121094 149.277344 208.328125 154.078125 203.519531 L 169.976562 187.601562 L 154.078125 171.683594 C 149.277344 166.875 149.277344 159.078125 154.078125 154.269531 C 158.882812 149.464844 166.664062 149.464844 171.46875 154.269531 Z M 187.363281 170.1875 " fill-opacity="1" fill-rule="evenodd"/><path fill="#5e94ff" d="M 187.363281 35.757812 C 180.574219 35.757812 175.070312 41.269531 175.070312 48.070312 C 175.070312 54.867188 180.574219 60.378906 187.363281 60.378906 C 194.15625 60.378906 199.660156 54.867188 199.660156 48.070312 C 199.660156 41.269531 194.15625 35.757812 187.363281 35.757812 Z M 150.480469 48.070312 C 150.480469 27.671875 166.992188 11.132812 187.363281 11.132812 C 207.734375 11.132812 224.25 27.671875 224.25 48.070312 C 224.25 68.46875 207.734375 85.003906 187.363281 85.003906 C 166.992188 85.003906 150.480469 68.46875 150.480469 48.070312 Z M 150.480469 48.070312 " fill-opacity="1" fill-rule="evenodd"/><path fill="#5485e5" d="M 187.363281 11.132812 C 166.992188 11.132812 150.480469 27.671875 150.480469 48.070312 C 150.480469 68.46875 166.992188 85.003906 187.363281 85.003906 L 187.363281 60.378906 C 180.574219 60.378906 175.070312 54.867188 175.070312 48.070312 C 175.070312 41.269531 180.574219 35.757812 187.363281 35.757812 Z M 187.363281 11.132812 " fill-opacity="1" fill-rule="evenodd"/><g clip-path="url(#id7)"><path fill="#5e94ff" d="M 187.363281 314.820312 C 180.574219 314.820312 175.070312 320.332031 175.070312 327.132812 C 175.070312 333.929688 180.574219 339.445312 187.363281 339.445312 C 194.15625 339.445312 199.660156 333.929688 199.660156 327.132812 C 199.660156 320.332031 194.15625 314.820312 187.363281 314.820312 Z M 150.480469 327.132812 C 150.480469 306.734375 166.992188 290.195312 187.363281 290.195312 C 207.734375 290.195312 224.25 306.734375 224.25 327.132812 C 224.25 347.53125 207.734375 364.066406 187.363281 364.066406 C 166.992188 364.066406 150.480469 347.53125 150.480469 327.132812 Z M 150.480469 327.132812 " fill-opacity="1" fill-rule="evenodd"/></g><g clip-path="url(#id8)"><path fill="#5485e5" d="M 187.363281 290.195312 C 166.992188 290.195312 150.480469 306.734375 150.480469 327.132812 C 150.480469 347.53125 166.992188 364.066406 187.363281 364.066406 L 187.363281 339.445312 C 180.574219 339.445312 175.070312 333.929688 175.070312 327.132812 C 175.070312 320.332031 180.574219 314.820312 187.363281 314.820312 Z M 187.363281 290.195312 " fill-opacity="1" fill-rule="evenodd"/></g><path fill="#5485e5" d="M 35.722656 187.601562 C 35.722656 194.398438 41.226562 199.910156 48.015625 199.910156 C 54.808594 199.910156 60.3125 194.398438 60.3125 187.601562 C 60.3125 180.800781 54.808594 175.289062 48.015625 175.289062 C 41.226562 175.289062 35.722656 180.800781 35.722656 187.601562 Z M 48.015625 224.535156 C 27.644531 224.535156 11.132812 208 11.132812 187.601562 C 11.132812 167.203125 27.644531 150.664062 48.015625 150.664062 C 68.390625 150.664062 84.902344 167.203125 84.902344 187.601562 C 84.902344 208 68.390625 224.535156 48.015625 224.535156 Z M 48.015625 224.535156 " fill-opacity="1" fill-rule="evenodd"/><path fill="#5e94ff" d="M 314.417969 187.601562 C 314.417969 194.398438 319.921875 199.910156 326.710938 199.910156 C 333.503906 199.910156 339.007812 194.398438 339.007812 187.601562 C 339.007812 180.800781 333.503906 175.289062 326.710938 175.289062 C 319.921875 175.289062 314.417969 180.800781 314.417969 187.601562 Z M 326.710938 224.535156 C 306.339844 224.535156 289.824219 208 289.824219 187.601562 C 289.824219 167.203125 306.339844 150.664062 326.710938 150.664062 C 347.082031 150.664062 363.597656 167.203125 363.597656 187.601562 C 363.597656 208 347.082031 224.535156 326.710938 224.535156 Z M 326.710938 224.535156 " fill-opacity="1" fill-rule="evenodd"/><g clip-path="url(#id9)"><path fill="#b4bcc0" d="M 113.59375 11.132812 C 120.382812 11.132812 125.886719 16.644531 125.886719 23.445312 L 125.886719 351.753906 C 125.886719 358.554688 120.382812 364.066406 113.59375 364.066406 C 106.800781 364.066406 101.296875 358.554688 101.296875 351.753906 L 101.296875 23.445312 C 101.296875 16.644531 106.800781 11.132812 113.59375 11.132812 Z M 113.59375 11.132812 " fill-opacity="1" fill-rule="evenodd"/></g><g clip-path="url(#id10)"><path fill="#cfd8dc" d="M 261.136719 11.132812 C 267.925781 11.132812 273.433594 16.644531 273.433594 23.445312 L 273.433594 351.753906 C 273.433594 358.554688 267.925781 364.066406 261.136719 364.066406 C 254.347656 364.066406 248.839844 358.554688 248.839844 351.753906 L 248.839844 23.445312 C 248.839844 16.644531 254.347656 11.132812 261.136719 11.132812 Z M 261.136719 11.132812 " fill-opacity="1" fill-rule="evenodd"/></g><path fill="#cfd8dc" d="M 11.132812 121.9375 C 11.132812 115.140625 16.636719 109.625 23.425781 109.625 L 351.300781 109.625 C 358.09375 109.625 363.597656 115.140625 363.597656 121.9375 C 363.597656 128.738281 358.09375 134.25 351.300781 134.25 L 23.425781 134.25 C 16.636719 134.25 11.132812 128.738281 11.132812 121.9375 Z M 11.132812 121.9375 " fill-opacity="1" fill-rule="evenodd"/><path fill="#cfd8dc" d="M 11.132812 253.261719 C 11.132812 246.464844 16.636719 240.949219 23.425781 240.949219 L 351.300781 240.949219 C 358.09375 240.949219 363.597656 246.464844 363.597656 253.261719 C 363.597656 260.0625 358.09375 265.574219 351.300781 265.574219 L 23.425781 265.574219 C 16.636719 265.574219 11.132812 260.0625 11.132812 253.261719 Z M 11.132812 253.261719 " fill-opacity="1" fill-rule="evenodd"/><path fill="#b4bcc0" d="M 187.363281 240.949219 L 187.363281 265.574219 L 23.425781 265.574219 C 16.636719 265.574219 11.132812 260.0625 11.132812 253.261719 C 11.132812 246.464844 16.636719 240.949219 23.425781 240.949219 Z M 187.363281 109.625 L 187.363281 134.25 L 23.425781 134.25 C 16.636719 134.25 11.132812 128.738281 11.132812 121.9375 C 11.132812 115.140625 16.636719 109.625 23.425781 109.625 Z M 187.363281 109.625 " fill-opacity="1" fill-rule="evenodd"/></svg>